<svg id="Layer_1" data-name="Layer 1" xmlns="http://www.w3.org/2000/svg" viewBox="0 0 600 324"><defs><style>.cls-1{fill:#0068c9;}</style></defs><path class="cls-1" d="M114.46,113.29c-13.8-6.48-30-1.83-39,10.37-9.17,12.41-7,30,2,41.86,10,13.3,27,18.29,43.08,16,16.42-2.34,30.85-12.44,41.28-25a103.88,103.88,0,0,0,24-71.14c-.36-7.17-2-15.26-8.54-19.38-7-4.39-15.27-.51-19.1,6-4.29,7.34-5,17.3-5.93,25.57-1.59,14.91-1,31.62,7.05,44.78,9.51,15.49,28.19,20,44,11.27,17.27-9.55,22.83-29.87,22.69-48.34-.08-9.67-14.75-9.65-15,0-.38,14.41.27,30.6,11.94,40.86,10.9,9.59,25.57,8.86,35.92-1.15,8.18-7.9,11.31-19,16.91-28.57,3-5.22,6.27-11.63,11.25-15.3,3.88-2.86,7.33-1.41,11.28.3,8.66,3.73,16-7.68,7.57-13-4.82-3-13.07-4.27-18.6-3.28-8.32,1.49-11.87,9.4-14.13,16.73-4.41,14.26-4.45,31.71,8.07,42,13.24,10.88,30.51,4.59,40.72-7.22,10.43-12.06,20-26.73,26.06-41.49,6.57-16,7.56-34.86-1.73-50.06-3.27-5.36-12.11-4.61-13.7,1.79a109.24,109.24,0,0,0,14.08,85.57c2.41,3.71,8.52,5.42,11.78,1.52,7.73-9.28,5.31-19.3,2.58-30-2.14-8.43.24-16.81,7.55-22,2.88-2.06,6.71-3.7,10.33-3.33s4.19.93,2,3.5c-3.23,3.85-8.8,6.29-13.19,8.53A103.26,103.26,0,0,1,351,97.36c-6,1.85-7.57,10.46-1.79,13.71a109.67,109.67,0,0,0,67.95,13.33c9.89-1.31,21.34-4,27-13.16C449,103.4,445.47,94.09,441,87c-5.12-8.15-18.11-.63-12.95,7.57,2.39,3.81,5.34,7.81,1.34,10.78-6,4.43-15.57,4.72-22.66,5a94.79,94.79,0,0,1-49.94-12.2L355,111.82a125.19,125.19,0,0,0,21.85-9c6.32-3.34,13.13-7.22,17.24-13.27,8.78-12.91-2.66-26.16-16.54-25.89-12.95.25-24.62,9.35-29.68,21a33.24,33.24,0,0,0-2.21,19.83c.9,4.83,5.9,14.43,2.09,19L359.54,125A94.17,94.17,0,0,1,347,51l-13.71,1.79c7.06,11.55,5.58,25.64.55,37.7a112.17,112.17,0,0,1-10,18c-3.9,6-7.83,12.25-12.51,17.65-3.86,4.47-9.66,9.72-16.14,8.53-4.79-.89-8-5.59-9.2-10-1.78-6.7-.08-14,2.18-20.42,1-2.74,1-4.48,3.82-4.16a33,33,0,0,1,6.32,1.41l7.57-13c-4.65-2-8.87-4.09-14.1-4.11-6.28,0-11.89,2.91-16.4,7.09-7.92,7.33-13.55,18.23-17.93,28-3.26,7.22-9.45,21.51-19.71,18.45-12.94-3.87-12-22.11-11.73-32.56H211c.08,11.35-1.77,24.33-10.78,32.27-7.06,6.22-17.66,8.17-24.87,1.22-6.56-6.31-8.47-16.76-8.79-25.47a106.55,106.55,0,0,1,1.1-19.3c.46-3.07,1-6.14,1.76-9.17,0,.06,2-6.46,2.26-6.14.52.76-2.75.31-2.45-.12.08-.12.65,1.15.74,1.49a34.23,34.23,0,0,1,.91,7.76,86.46,86.46,0,0,1-1.33,17.74,91.32,91.32,0,0,1-13.69,34c-11.79,17.75-34.74,35-56.86,24.68-9.7-4.52-16.74-15.8-13.88-26.61,2.29-8.64,13.18-15.48,21.82-11.42s16.31-8.85,7.57-13Z"/><path class="cls-1" d="M211.7,67.12c-3,2.13-4.76,5.37-3.78,9.14a8.54,8.54,0,0,0,6,6.07c5,1.31,8.85-2.27,12.05-5.54,3.86-3.93,5-10.25.87-14.49-3.65-3.77-9.43-3.39-13.43-.52-3.19,2.28-5,6.64-2.7,10.27,2,3.15,6.85,5.13,10.27,2.69.26-.19.54-.36.79-.56.88-.65-.62.17-1.08.23-1.36.35-2.45-.32-3.29-2-2.14-.53-3.05-1.67-2.71-3.43,0,0,0-3.19.86-3-.19,0-1.5,1.42-1.68,1.59a15.11,15.11,0,0,0-1.17,1.08c-.37.33-.31.3.19-.09a5,5,0,0,1,4.74-.81l3.31,1.93L222.65,74l-1,3.78.11-.23L219,80.23l.23-.16c3.2-2.25,5-6.66,2.69-10.26-2.05-3.18-6.83-5.1-10.26-2.69Z"/><path class="cls-1" d="M168.84,260.06a117.71,117.71,0,0,0,55.06-44.3c4.57-6.78,9.38-14.6,10.82-22.74,1.46-8.3-1.2-17.47-8.82-22-6.82-4-15.22-2.23-20.43,3.46s-6.81,13.25-7.62,20.59a142.09,142.09,0,0,0-.45,26.41,155.85,155.85,0,0,0,16.75,59.41c4,7.82,15.56,2.25,13.71-5.78a62,62,0,0,1-1.16-22.34c.75-5.39,2-14.32,6.19-18.3,3.89-3.7,8.3,2.75,9.87,5.91,2.65,5.34,3,11.69,4.85,17.34,4.07,12.61,13.12,20.8,26.8,18.52a43.68,43.68,0,0,0,29.64-20.68c6.06-10.61,7.71-24.42,2.5-35.69-4.35-9.43-18.25-21.1-28.1-11.6-4.9,4.72-5,11.89-4.93,18.22a104.33,104.33,0,0,0,3.16,24c3,11.77,8.75,27.32,22.71,29.06,16.44,2,24.91-16.73,29.05-29.52a90.05,90.05,0,0,0,1.49-48.86L328,208.48c2-1.61,9.38-6,13-4,.59.33-.83-1.71.55.41,1.21,1.86,1.09,5.47,1.31,7.61,1.21,11.34,2.37,25.1,9.26,34.68s19.16,12.83,30.49,10c12.37-3.06,21.36-12.89,26.47-24.16,5-11.1,10.48-26.87,5.13-38.64-5.12-11.3-19.44-15.55-28.68-6.34-8.63,8.61-9.25,23.19-5.8,34.22,3.79,12.1,12.65,22,24.73,26.18,12.58,4.37,27.88,1.77,37.42-7.82,9.72-9.79,12-24.87,7.59-37.63-3.13-9.08-17.62-5.18-14.46,4,2.61,7.59,2.4,16.32-3.27,22.54s-15,7.27-22.59,4.7c-8.38-2.84-13.86-10.38-15.73-18.82-.67-3.05-1.55-18.68,4.76-17.49,3.66.7,3.28,7.5,3,9.88a70.77,70.77,0,0,1-3.53,13.65c-2.76,8.09-7.51,16.86-15.82,20.27-6.55,2.69-14.6,2.13-18.32-4.56-4.21-7.58-4.85-17.64-5.77-26.08s-2.52-18.15-12-20.86c-10.23-2.94-20.5,1.32-28.41,7.63-2.07,1.64-2.51,4.9-1.93,7.29a74.06,74.06,0,0,1,.31,34.4,71.29,71.29,0,0,1-5.48,15.61c-1.54,3.1-4.42,9.48-8.6,9.59-3.43.09-5.82-4.8-7-7.4-2.6-5.61-4-12-5.06-18.1-1-5.8-1.77-12.41-1-18.29,0,0,.48-2.22.44-2.27s.28.61-.4.63c-4.21.11,1.11,2.32,2.42,3.88,5.21,6.21,4.29,16,1,22.91-3.73,7.89-12.24,14.56-21.06,15.59-9,1.07-10-11.72-11.54-18.12-2.44-10-8-20.91-18.57-24.36-13.3-4.34-22.06,6.71-25.88,17.94a77.14,77.14,0,0,0-1.65,42l13.71-5.78a136.72,136.72,0,0,1-14.57-50.08,143.05,143.05,0,0,1,.13-26.42,29.44,29.44,0,0,1,2.08-9.36,11.61,11.61,0,0,1,1.71-2.82c.54-.61,1.47-.9,1.17-.92,2.54.18,2.73,4.34,2.49,6.1-.57,4.21-3,8.2-5.11,11.82a101,101,0,0,1-13.35,18.21,103.21,103.21,0,0,1-36.81,25.7c-3.73,1.52-6.42,5-5.23,9.23,1,3.55,5.43,6.77,9.22,5.24Z"/><path class="cls-1" d="M487.5,95a459.9,459.9,0,0,0-1.26,99.38c.39,4,3.16,7.5,7.5,7.5,3.75,0,7.89-3.45,7.5-7.5A459.9,459.9,0,0,1,502.5,95c.48-4-3.79-7.5-7.5-7.5-4.45,0-7,3.46-7.5,7.5Z"/><path class="cls-1" d="M495.32,243c9.66,0,9.67-15,0-15s-9.66,15,0,15Z"/></svg>